<?xml version="1.0" encoding="utf-8"?>
<!-- Generator: Adobe Illustrator 26.0.1, SVG Export Plug-In . SVG Version: 6.00 Build 0)  -->
<svg version="1.1" id="Calque_1" xmlns="http://www.w3.org/2000/svg" xmlns:xlink="http://www.w3.org/1999/xlink" x="0px" y="0px"
	 viewBox="0 0 50 50" style="enable-background:new 0 0 50 50;" xml:space="preserve">
<style type="text/css">
	.st0{fill:#1880C4;}
</style>
<g id="layer1" transform="translate(-260.04213,-561.45371)">
	<g id="g7024" transform="matrix(3.1583222,0,0,-3.1583222,455.69235,563.46029)">
		<path id="path7026" class="st0" d="M-52.32-5.32l-3.41,0.01v-0.88l1.22,0v-2.34l0.94-0.75v2.72L-54-6.19l1.69,0V-5.32z"/>
	</g>
	<g id="g7028" transform="matrix(3.1583222,0,0,-3.1583222,559.0295,668.81969)">
		<path id="path7030" class="st0" d="M-81.15,24.08l-2.69,2.15l0-2.15l-0.86,0.67v3.33l2.66-2.14v2.09h0.89L-81.15,24.08z"/>
	</g>
	<g id="g7032" transform="matrix(3.1583222,0,0,-3.1583222,355.38437,668.81969)">
		<path id="path7034" class="st0" d="M-24.33,24.08l-2.69,2.15l0-2.15l-0.86,0.67v3.33l2.66-2.14v2.09h0.89L-24.33,24.08z"/>
	</g>
</g>
</svg>
