<?xml version="1.0" encoding="utf-8"?>
<!-- Generator: Adobe Illustrator 26.0.1, SVG Export Plug-In . SVG Version: 6.00 Build 0)  -->
<svg version="1.1" id="Calque_1" xmlns="http://www.w3.org/2000/svg" xmlns:xlink="http://www.w3.org/1999/xlink" x="0px" y="0px"
	 viewBox="0 0 50 50" style="enable-background:new 0 0 50 50;" xml:space="preserve">
<style type="text/css">
	.st0{filter:url(#AI_FlouGaussien_4);}
	.st1{fill:#DADADA;}
	.st2{fill:#1880C4;}
</style>
<filter  id="AI_FlouGaussien_4">
	<feGaussianBlur  stdDeviation="1"></feGaussianBlur>
</filter>
<g class="st0">
	<rect class="st1" width="50" height="50"/>
</g>
<g id="layer1" transform="translate(-260.04213,-561.45371)" class="st0">
	
		<g id="g7024_00000010304218375349246430000016821519103569708705_" transform="matrix(3.1583222,0,0,-3.1583222,455.69235,563.46029)">
		<path id="path7026_00000046300023003957266610000017751786155750079374_" class="st2" d="M-52.32-5.32l-3.41,0.01v-0.88l1.22,0
			v-2.34l0.94-0.75v2.72L-54-6.19l1.69,0V-5.32z"/>
	</g>
	
		<g id="g7028_00000178898630809382416250000018167022409345690027_" transform="matrix(3.1583222,0,0,-3.1583222,559.0295,668.81969)">
		<path id="path7030_00000121982984525224393140000000052681246403546538_" class="st2" d="M-81.15,24.08l-2.69,2.15l0-2.15
			l-0.86,0.67v3.33l2.66-2.14v2.09h0.89L-81.15,24.08z"/>
	</g>
	
		<g id="g7032_00000135671076639079716530000014284878184225803693_" transform="matrix(3.1583222,0,0,-3.1583222,355.38437,668.81969)">
		<path id="path7034_00000179626148554884386260000009816218051951889030_" class="st2" d="M-24.33,24.08l-2.69,2.15l0-2.15
			l-0.86,0.67v3.33l2.66-2.14v2.09h0.89L-24.33,24.08z"/>
	</g>
</g>
</svg>
